G04 DipTrace 2.4.0.1*
%INmainboard_TopMask.gbr*%
%MOIN*%
%ADD34R,0.063X0.0709*%
%ADD71C,0.0945*%
%ADD72C,0.0669*%
%ADD73C,0.035*%
%ADD74C,0.126*%
%ADD77C,0.0551*%
%ADD85R,0.0197X0.0709*%
%ADD87R,0.0709X0.0197*%
%ADD89R,0.0335X0.0492*%
%ADD91R,0.0945X0.0709*%
%ADD93R,0.0866X0.1063*%
%ADD95R,0.0866X0.1378*%
%ADD97R,0.0276X0.1378*%
%ADD99C,0.0866*%
%ADD101R,0.0866X0.0866*%
%ADD103C,0.0866*%
%ADD104C,0.0709*%
%ADD105R,0.0669X0.0669*%
%ADD107C,0.1142*%
%ADD109O,0.0866X0.185*%
%ADD111O,0.185X0.0866*%
%ADD113O,0.2047X0.0866*%
%ADD115R,0.1358X0.0925*%
%ADD117R,0.0453X0.0925*%
%ADD119R,0.1102X0.1457*%
%ADD121R,0.0433X0.028*%
%ADD123R,0.0472X0.0315*%
%ADD125R,0.0472X0.0472*%
%ADD127R,0.0787X0.0709*%
%ADD129R,0.0492X0.0335*%
%ADD131C,0.1024*%
%ADD132R,0.1024X0.1024*%
%ADD133R,0.0472X0.0512*%
%ADD135R,0.0512X0.0472*%
%ADD137R,0.0709X0.0787*%
%ADD138R,0.0591X0.0669*%
%ADD140R,0.0669X0.0591*%
%ADD142C,0.061*%
%ADD144R,0.061X0.061*%
%FSLAX44Y44*%
G04*
G70*
G90*
G75*
G01*
%LNTopMask*%
%LPD*%
D144*
X9063Y16813D3*
D142*
X10047D3*
D140*
X7563Y12313D3*
Y13061D3*
X11687Y11687D3*
Y10939D3*
X8437Y9187D3*
Y9935D3*
D138*
X15062Y12812D3*
X14314D3*
X16063Y12811D3*
X16811D3*
X27875Y12625D3*
X28623D3*
D140*
X29500Y14250D3*
Y14998D3*
D137*
X26937Y22687D3*
X25835D3*
D135*
X23752Y10688D3*
X24421D3*
X23752Y11188D3*
X24421D3*
D133*
X27002Y14251D3*
Y14920D3*
X26437Y14250D3*
Y14919D3*
D132*
X5375Y16813D3*
D131*
Y21164D3*
D129*
X12688Y9938D3*
Y9190D3*
X13593Y9564D3*
D127*
X19638Y16200D3*
Y17302D3*
D125*
X22750Y19937D3*
D123*
Y19268D3*
X23655D3*
Y20016D3*
D121*
X10437Y11187D3*
Y11687D3*
Y12187D3*
Y12687D3*
X8350D3*
Y12187D3*
Y11687D3*
Y11187D3*
D119*
X9394Y11935D3*
D117*
X16951Y11734D3*
X16045D3*
X15140D3*
D115*
X16045Y9451D3*
D113*
X8937Y19437D3*
D111*
Y21799D3*
D109*
X7087Y20618D3*
D107*
X18937Y20000D3*
X17953Y19015D3*
X13031Y20000D3*
X14016Y19015D3*
X15984Y20000D3*
X16969Y23937D3*
X15000D3*
X17953D3*
X14016D3*
D71*
X18937Y21968D3*
X13031D3*
D105*
X35000Y12000D3*
D104*
X35787D3*
X35000Y11212D3*
X35787D3*
Y10425D3*
X35000D3*
Y9637D3*
X35787D3*
X35000Y8850D3*
X35787D3*
D77*
X31062Y21437D3*
Y20256D3*
X30471Y21437D3*
X29881D3*
X30767Y20846D3*
X30176D3*
X29586D3*
X29290Y20256D3*
X29881D3*
X30471D3*
X31653D3*
X32243D3*
X32834D3*
Y21437D3*
X32243D3*
X31653D3*
X31357Y20846D3*
X31948D3*
X32538D3*
D103*
X34251Y23524D3*
X28070D3*
D72*
X31160Y22815D3*
D105*
X22001Y5187D3*
D104*
Y5975D3*
X22789Y5187D3*
Y5975D3*
X23576D3*
Y5187D3*
X24364D3*
Y5975D3*
X25151Y5187D3*
Y5975D3*
D101*
X29627Y5125D3*
D99*
X28627D3*
D97*
X23687Y21625D3*
X23372D3*
X23057D3*
X22742D3*
X22427D3*
D95*
X24809D3*
X21305D3*
D93*
X24809Y23794D3*
X21305D3*
D73*
X23923Y22632D3*
X22191D3*
D91*
X6125Y11437D3*
Y8917D3*
D140*
X9437Y9187D3*
Y9935D3*
D138*
X10687Y9937D3*
X11435D3*
D140*
X19627Y15375D3*
Y14627D3*
X17813Y15001D3*
Y15749D3*
X17001Y15001D3*
Y15749D3*
D138*
X13812Y15937D3*
X13064D3*
X13062Y17062D3*
X13810D3*
X16937D3*
X17685D3*
X21251Y7000D3*
X21999D3*
D140*
X22750Y17687D3*
Y18435D3*
X23687Y17687D3*
Y18435D3*
D138*
X21811Y19813D3*
X21063D3*
X21062Y17187D3*
X21810D3*
D137*
X26937Y23625D3*
X25835D3*
D140*
X24562Y19937D3*
Y19189D3*
D138*
X25311Y18499D3*
X24563D3*
X29627Y6250D3*
X28879D3*
D140*
X27566Y5313D3*
Y6061D3*
X30377Y19064D3*
Y18316D3*
X31190Y19064D3*
Y18316D3*
X35753Y19064D3*
Y18316D3*
X34940Y19064D3*
Y18316D3*
X28752Y19064D3*
Y18316D3*
X29565Y19064D3*
Y18316D3*
X34128Y19064D3*
Y18316D3*
X33315Y19064D3*
Y18316D3*
X32002Y19064D3*
Y18316D3*
D101*
X7187Y16937D3*
D99*
Y17937D3*
D129*
X15812Y14937D3*
Y15685D3*
X14906Y15311D3*
X15062Y17437D3*
Y16689D3*
X15968Y17063D3*
D89*
X20939Y18031D3*
X21687D3*
X21313Y18937D3*
D87*
X25062Y12750D3*
Y12946D3*
Y13143D3*
Y13340D3*
Y13537D3*
Y13734D3*
Y13931D3*
Y14127D3*
Y14324D3*
Y14521D3*
Y14718D3*
Y14915D3*
D85*
X24491Y15486D3*
X24294D3*
X24097D3*
X23901D3*
X23704D3*
X23507D3*
X23310D3*
X23113D3*
X22916D3*
X22719D3*
X22523D3*
X22326D3*
D87*
X21755Y14915D3*
Y14718D3*
Y14521D3*
Y14324D3*
Y14127D3*
Y13931D3*
Y13734D3*
Y13537D3*
Y13340D3*
Y13143D3*
Y12946D3*
Y12750D3*
D85*
X22326Y12179D3*
X22523D3*
X22719D3*
X22916D3*
X23113D3*
X23310D3*
X23507D3*
X23704D3*
X23901D3*
X24097D3*
X24294D3*
X24491D3*
D34*
X28750Y13500D3*
Y14996D3*
X27844D3*
Y13500D3*
D74*
X5312Y23562D3*
Y5312D3*
X36187Y23562D3*
Y5312D3*
M02*
