G04 DipTrace 2.4.0.1*
%INBottomSilk.gbr*%
%MOIN*%
%ADD10C,0.0098*%
%ADD27C,0.0154*%
%ADD60C,0.0062*%
%FSLAX44Y44*%
G04*
G70*
G90*
G75*
G01*
%LNBotSilk*%
%LPD*%
X8213Y7193D2*
D10*
Y6682D1*
X11052Y13982D2*
Y11856D1*
X9793Y13982D2*
Y11856D1*
X11052D2*
X9793D1*
X11052Y13982D2*
X10619D1*
X10226D2*
X9793D1*
X10619D2*
G02X10226Y13982I-197J0D01*
G01*
D27*
X23373Y15855D3*
X23281Y16357D2*
D10*
X22100D1*
Y16554D1*
X23281D1*
Y16357D1*
D27*
X23373Y12980D3*
X23281Y13482D2*
D10*
X22100D1*
Y13679D1*
X23281D1*
Y13482D1*
D27*
X5998Y12543D3*
X5906Y13044D2*
D10*
X4725D1*
Y13241D1*
X5906D1*
Y13044D1*
X8888Y7723D2*
D60*
X8907Y7761D1*
X8946Y7799D1*
X8984Y7818D1*
X9060D1*
X9099Y7799D1*
X9137Y7761D1*
X9156Y7723D1*
X9175Y7665D1*
Y7569D1*
X9156Y7512D1*
X9137Y7474D1*
X9099Y7436D1*
X9060Y7416D1*
X8984D1*
X8946Y7436D1*
X8907Y7474D1*
X8888Y7512D1*
X8765Y7741D2*
X8726Y7761D1*
X8669Y7818D1*
Y7416D1*
X10738Y11693D2*
Y11291D1*
X10327Y11597D2*
X10346Y11635D1*
X10385Y11674D1*
X10423Y11693D1*
X10499D1*
X10538Y11674D1*
X10576Y11635D1*
X10595Y11597D1*
X10614Y11540D1*
Y11444D1*
X10595Y11387D1*
X10576Y11348D1*
X10538Y11310D1*
X10499Y11291D1*
X10423D1*
X10385Y11310D1*
X10346Y11348D1*
X10327Y11387D1*
X10204Y11616D2*
X10165Y11635D1*
X10108Y11692D1*
Y11291D1*
X23923Y17138D2*
X23961Y17119D1*
X23999Y17081D1*
X24018Y17042D1*
X24038Y16985D1*
Y16889D1*
X24018Y16832D1*
X23999Y16794D1*
X23961Y16755D1*
X23923Y16736D1*
X23846D1*
X23808Y16755D1*
X23770Y16794D1*
X23751Y16832D1*
X23731Y16889D1*
Y16985D1*
X23751Y17042D1*
X23770Y17081D1*
X23808Y17119D1*
X23846Y17138D1*
X23923D1*
X23865Y16813D2*
X23751Y16698D1*
X23608Y17061D2*
X23569Y17080D1*
X23512Y17137D1*
Y16736D1*
X24009Y14388D2*
X24047Y14369D1*
X24085Y14331D1*
X24104Y14292D1*
X24124Y14235D1*
Y14139D1*
X24104Y14082D1*
X24085Y14044D1*
X24047Y14005D1*
X24009Y13986D1*
X23932D1*
X23894Y14005D1*
X23856Y14044D1*
X23837Y14082D1*
X23817Y14139D1*
Y14235D1*
X23837Y14292D1*
X23856Y14331D1*
X23894Y14369D1*
X23932Y14388D1*
X24009D1*
X23951Y14063D2*
X23837Y13948D1*
X23674Y14292D2*
Y14311D1*
X23655Y14349D1*
X23636Y14368D1*
X23598Y14387D1*
X23521D1*
X23483Y14368D1*
X23464Y14349D1*
X23445Y14311D1*
Y14273D1*
X23464Y14234D1*
X23502Y14177D1*
X23694Y13986D1*
X23426D1*
X4884Y14138D2*
X4922Y14119D1*
X4960Y14081D1*
X4979Y14042D1*
X4999Y13985D1*
Y13889D1*
X4979Y13832D1*
X4960Y13794D1*
X4922Y13755D1*
X4884Y13736D1*
X4807D1*
X4769Y13755D1*
X4731Y13794D1*
X4712Y13832D1*
X4692Y13889D1*
Y13985D1*
X4712Y14042D1*
X4731Y14081D1*
X4769Y14119D1*
X4807Y14138D1*
X4884D1*
X4826Y13813D2*
X4712Y13698D1*
X4530Y14137D2*
X4320D1*
X4435Y13984D1*
X4377D1*
X4339Y13965D1*
X4320Y13946D1*
X4301Y13889D1*
Y13851D1*
X4320Y13793D1*
X4358Y13755D1*
X4416Y13736D1*
X4473D1*
X4530Y13755D1*
X4549Y13774D1*
X4569Y13812D1*
X10807Y15254D2*
X10635D1*
X10578Y15274D1*
X10558Y15293D1*
X10539Y15331D1*
Y15369D1*
X10558Y15407D1*
X10578Y15427D1*
X10635Y15446D1*
X10807D1*
Y15044D1*
X10673Y15254D2*
X10539Y15044D1*
X10416Y15369D2*
X10377Y15388D1*
X10320Y15445D1*
Y15044D1*
X13393Y15192D2*
X13221D1*
X13164Y15211D1*
X13144Y15230D1*
X13125Y15268D1*
Y15307D1*
X13144Y15345D1*
X13164Y15364D1*
X13221Y15383D1*
X13393D1*
Y14981D1*
X13259Y15192D2*
X13125Y14981D1*
X12982Y15287D2*
Y15306D1*
X12963Y15345D1*
X12944Y15364D1*
X12906Y15383D1*
X12829D1*
X12791Y15364D1*
X12772Y15345D1*
X12753Y15306D1*
Y15268D1*
X12772Y15230D1*
X12810Y15173D1*
X13002Y14981D1*
X12734D1*
X15268Y15129D2*
X15096D1*
X15039Y15149D1*
X15019Y15168D1*
X15000Y15206D1*
Y15244D1*
X15019Y15282D1*
X15039Y15302D1*
X15096Y15321D1*
X15268D1*
Y14919D1*
X15134Y15129D2*
X15000Y14919D1*
X14838Y15320D2*
X14628D1*
X14743Y15167D1*
X14685D1*
X14647Y15148D1*
X14628Y15129D1*
X14609Y15072D1*
Y15034D1*
X14628Y14976D1*
X14666Y14938D1*
X14724Y14919D1*
X14781D1*
X14838Y14938D1*
X14857Y14957D1*
X14877Y14995D1*
X20590Y14004D2*
X20418D1*
X20361Y14024D1*
X20341Y14043D1*
X20322Y14081D1*
Y14119D1*
X20341Y14157D1*
X20361Y14177D1*
X20418Y14196D1*
X20590D1*
Y13794D1*
X20456Y14004D2*
X20322Y13794D1*
X20007D2*
Y14195D1*
X20199Y13928D1*
X19912D1*
X18518Y13192D2*
X18346D1*
X18289Y13211D1*
X18269Y13230D1*
X18250Y13268D1*
Y13307D1*
X18269Y13345D1*
X18289Y13364D1*
X18346Y13383D1*
X18518D1*
Y12981D1*
X18384Y13192D2*
X18250Y12981D1*
X17897Y13383D2*
X18088D1*
X18107Y13211D1*
X18088Y13230D1*
X18031Y13249D1*
X17974D1*
X17916Y13230D1*
X17878Y13192D1*
X17859Y13134D1*
Y13096D1*
X17878Y13039D1*
X17916Y13000D1*
X17974Y12981D1*
X18031D1*
X18088Y13000D1*
X18107Y13020D1*
X18127Y13058D1*
X16883Y12567D2*
X16711D1*
X16654Y12586D1*
X16635Y12605D1*
X16616Y12643D1*
Y12682D1*
X16635Y12720D1*
X16654Y12739D1*
X16711Y12758D1*
X16883D1*
Y12356D1*
X16749Y12567D2*
X16616Y12356D1*
X16263Y12701D2*
X16282Y12739D1*
X16339Y12758D1*
X16377D1*
X16435Y12739D1*
X16473Y12681D1*
X16492Y12586D1*
Y12490D1*
X16473Y12414D1*
X16435Y12375D1*
X16377Y12356D1*
X16358D1*
X16301Y12375D1*
X16263Y12414D1*
X16244Y12471D1*
Y12490D1*
X16263Y12548D1*
X16301Y12586D1*
X16358Y12605D1*
X16377D1*
X16435Y12586D1*
X16473Y12548D1*
X16492Y12490D1*
X14161Y12960D2*
X13989D1*
X13932Y12980D1*
X13912Y12999D1*
X13893Y13037D1*
Y13075D1*
X13912Y13113D1*
X13932Y13133D1*
X13989Y13152D1*
X14161D1*
Y12750D1*
X14027Y12960D2*
X13893Y12750D1*
X13693D2*
X13502Y13151D1*
X13770D1*
X13036Y12898D2*
X12864D1*
X12807Y12917D1*
X12787Y12936D1*
X12768Y12974D1*
Y13013D1*
X12787Y13051D1*
X12807Y13070D1*
X12864Y13089D1*
X13036D1*
Y12687D1*
X12902Y12898D2*
X12768Y12687D1*
X12549Y13089D2*
X12606Y13070D1*
X12626Y13032D1*
Y12993D1*
X12606Y12955D1*
X12568Y12936D1*
X12492Y12917D1*
X12434Y12898D1*
X12396Y12859D1*
X12377Y12821D1*
Y12764D1*
X12396Y12726D1*
X12415Y12706D1*
X12473Y12687D1*
X12549D1*
X12606Y12706D1*
X12626Y12726D1*
X12645Y12764D1*
Y12821D1*
X12626Y12859D1*
X12587Y12898D1*
X12530Y12917D1*
X12454Y12936D1*
X12415Y12955D1*
X12396Y12993D1*
Y13032D1*
X12415Y13070D1*
X12473Y13089D1*
X12549D1*
X24839Y15648D2*
X24667D1*
X24610Y15667D1*
X24590Y15686D1*
X24571Y15724D1*
Y15763D1*
X24590Y15801D1*
X24610Y15820D1*
X24667Y15839D1*
X24839D1*
Y15437D1*
X24705Y15648D2*
X24571Y15437D1*
X24199Y15705D2*
X24218Y15648D1*
X24256Y15609D1*
X24314Y15590D1*
X24333D1*
X24390Y15609D1*
X24428Y15648D1*
X24448Y15705D1*
Y15724D1*
X24428Y15782D1*
X24390Y15820D1*
X24333Y15839D1*
X24314D1*
X24256Y15820D1*
X24218Y15782D1*
X24199Y15705D1*
Y15609D1*
X24218Y15514D1*
X24256Y15456D1*
X24314Y15437D1*
X24352D1*
X24409Y15456D1*
X24428Y15495D1*
X24521Y11460D2*
X24349D1*
X24292Y11480D1*
X24272Y11499D1*
X24253Y11537D1*
Y11575D1*
X24272Y11613D1*
X24292Y11633D1*
X24349Y11652D1*
X24521D1*
Y11250D1*
X24387Y11460D2*
X24253Y11250D1*
X24130Y11575D2*
X24091Y11594D1*
X24034Y11651D1*
Y11250D1*
X23795Y11651D2*
X23853Y11632D1*
X23891Y11575D1*
X23910Y11479D1*
Y11422D1*
X23891Y11326D1*
X23853Y11269D1*
X23795Y11250D1*
X23757D1*
X23700Y11269D1*
X23662Y11326D1*
X23642Y11422D1*
Y11479D1*
X23662Y11575D1*
X23700Y11632D1*
X23757Y11651D1*
X23795D1*
X23662Y11575D2*
X23891Y11326D1*
X5058Y11083D2*
X4886D1*
X4828Y11103D1*
X4809Y11122D1*
X4790Y11160D1*
Y11198D1*
X4809Y11236D1*
X4828Y11256D1*
X4886Y11275D1*
X5058D1*
Y10873D1*
X4924Y11083D2*
X4790Y10873D1*
X4666Y11198D2*
X4628Y11217D1*
X4570Y11274D1*
Y10873D1*
X4447Y11198D2*
X4408Y11217D1*
X4351Y11274D1*
Y10873D1*
M02*
