G04 DipTrace 2.4.0.1*
%INpanel_Bottom.gbr*%
%MOIN*%
%ADD13C,0.0157*%
%ADD14C,0.016*%
%ADD15C,0.04*%
%ADD16C,0.03*%
%ADD17C,0.024*%
%ADD18C,0.02*%
%ADD19C,0.025*%
%ADD20R,0.0512X0.0591*%
%ADD21C,0.0591*%
%ADD22R,0.0591X0.0591*%
%ADD23C,0.0669*%
%ADD24R,0.0669X0.0669*%
%ADD25R,0.0709X0.0157*%
%ADD26C,0.063*%
%ADD28R,0.0256X0.0413*%
%ADD29R,0.0591X0.0512*%
%ADD30O,0.0827X0.1024*%
%ADD31R,0.1417X0.1417*%
%ADD33C,0.0472*%
%FSLAX44Y44*%
G04*
G70*
G90*
G75*
G01*
%LNBottom*%
%LPD*%
X9281Y13047D2*
D13*
X9715D1*
D14*
X10207D1*
X10439Y12815D1*
Y10811D1*
X10688Y10563D1*
X11938D2*
Y11941D1*
X11856Y12024D1*
D13*
X11564D1*
X17177Y7352D2*
D15*
X17189Y7365D1*
Y7877D1*
X17377Y8065D1*
X21314D1*
D16*
X24629D1*
X25127Y8562D1*
Y9313D1*
X24252Y10188D1*
Y11313D1*
X25214Y12276D1*
Y13018D1*
X23689Y7312D2*
D14*
Y7375D1*
Y5250D2*
X23752D1*
X12313Y4375D2*
X12438D1*
Y7000D2*
X12313D1*
X23064Y13127D2*
D17*
Y12190D1*
X5689Y12690D2*
Y11438D1*
X5562D1*
X10189Y14565D2*
D14*
Y13815D1*
X9933Y13559D1*
X8965D1*
D13*
X9281D1*
X12689Y14565D2*
D14*
Y14065D1*
X12439Y13815D1*
X11499D1*
D13*
X11564D1*
X14564Y14440D2*
D14*
Y14565D1*
X13814Y13815D1*
X13064D1*
X12808Y13559D1*
X11499D1*
D13*
X11564D1*
Y13303D2*
X11499D1*
X18689Y13940D2*
D14*
X18314D1*
X18127Y13752D1*
X14377D1*
X14064Y13440D1*
X13314D1*
X13178Y13303D1*
X11499D1*
D13*
D3*
X16689Y13190D2*
D14*
Y13315D1*
X14689D1*
X14422Y13047D1*
X11499D1*
D13*
X11564D1*
Y12791D2*
X11499D1*
D14*
X14838D1*
X15064Y12565D1*
X11564Y12535D2*
D13*
X11499D1*
D14*
X13469D1*
X13814Y12190D1*
X11564Y12279D2*
D13*
X11499D1*
D14*
X12475D1*
X12689Y12065D1*
X12564D1*
X12689Y11940D1*
X22690Y16908D2*
D17*
X21846D1*
X21566Y17188D1*
X17376D1*
X16750Y16563D1*
Y16063D1*
X17750D2*
X17689Y16124D1*
Y16564D1*
X17876Y16751D1*
X21253D1*
X21689Y16315D1*
Y15065D1*
X22690Y14064D1*
Y14033D1*
X23689Y16002D2*
X23064D1*
X6939Y16065D2*
Y14065D1*
Y13065D1*
Y10065D1*
X5315Y13595D2*
X5314Y13596D1*
Y13940D1*
X5439Y14065D1*
X6939D1*
X26002Y15774D2*
D18*
X25981D1*
X26002Y10065D2*
Y10627D1*
X27189Y11815D1*
Y14126D1*
X26002Y15313D1*
Y15774D1*
Y10065D2*
Y7562D1*
X25004Y6565D1*
X17964D1*
X27970Y10065D2*
X27939Y10034D1*
Y8815D1*
X27437Y8312D1*
X26752D1*
X26502Y8062D1*
Y7187D1*
X25377Y6062D1*
X18689D1*
X18441Y5815D1*
X17439D1*
X17177Y6078D1*
Y6565D1*
X9281Y12535D2*
D13*
X9719D1*
X9814Y12440D1*
D14*
X9938Y12317D1*
Y11563D1*
X9813Y11438D1*
Y7562D1*
X11000Y6375D1*
X13501D1*
X13935Y5940D1*
X15316D1*
X15564Y6188D1*
Y6527D1*
X15602Y6565D1*
X14814D2*
X14123D1*
X12438Y8250D1*
X11563D1*
X11188Y8625D1*
Y10813D1*
X10689Y11311D1*
Y13065D1*
X10451Y13303D1*
X9715D1*
D13*
X9281D1*
X26986Y10065D2*
D16*
X26939D1*
Y8938D1*
X24064D2*
D14*
X23689D1*
Y15254D1*
X16389Y7352D2*
Y7890D1*
X17187Y8688D1*
X22937D1*
X23187Y8938D1*
X23689D1*
X15602Y7352D2*
D18*
Y7790D1*
X16877Y9065D1*
X22439D1*
X23064Y9690D1*
Y10690D1*
Y11442D1*
X27970Y15774D2*
X27179Y16565D1*
X25439D1*
X25189Y16315D1*
Y15440D1*
X26689Y13940D1*
Y12065D1*
X26064Y11440D1*
X25816D1*
X25066Y10690D1*
X14814Y7352D2*
D17*
X14542Y7625D1*
X13751D1*
X12563Y8813D1*
X11813D1*
X8688D2*
Y8688D1*
X8500Y8500D1*
X6504D1*
X5562Y9442D1*
Y10690D1*
X9281Y12791D2*
D14*
X9963D1*
X10189Y12565D1*
Y8311D1*
X11500Y7000D1*
Y5750D2*
X11563Y5812D1*
D18*
X13375D1*
X13623Y5565D1*
X15814D1*
X16389Y6140D1*
Y6565D1*
X15312Y14440D2*
D17*
Y14942D1*
Y14440D2*
Y15067D1*
X14750Y15629D1*
Y16063D1*
X19750D2*
Y15751D1*
X19127Y15127D1*
X17314D1*
Y14190D2*
X16002D1*
X15752Y14440D1*
X15312D1*
X7939Y16065D2*
X10814D1*
X11939Y17190D1*
X14064D1*
X14750Y16504D1*
Y16063D1*
X19437Y13940D2*
D14*
Y14563D1*
X20689Y15815D1*
Y16063D1*
X20750D1*
X19437Y14563D2*
X17941D1*
X17814Y14690D1*
X16314D1*
X15750Y15254D1*
Y16063D1*
Y16004D2*
Y16063D1*
X7939Y10065D2*
D18*
Y10440D1*
X7439Y10940D1*
D14*
Y16503D1*
D18*
X7625Y16688D1*
X10438D1*
X11314Y17565D1*
X14624D1*
X15750Y16439D1*
Y16063D1*
X14813Y10126D2*
D17*
X14750Y10063D1*
Y10501D1*
X15564Y11315D1*
Y11815D1*
X15812Y12063D1*
Y12565D1*
X19750Y10063D2*
X19814Y10127D1*
Y10440D1*
X19439Y10815D1*
X18439D1*
X17439Y11815D1*
X13750Y10063D2*
X13814Y10127D1*
X13750Y10063D2*
Y10501D1*
X13814Y10565D1*
Y11442D1*
X17689Y10124D2*
X17750Y10063D1*
Y10754D1*
X17189Y11315D1*
X16939D1*
X14564D2*
X14437Y11442D1*
X13814D1*
X17437Y13190D2*
D14*
Y12419D1*
X16919D1*
X16064Y11565D1*
Y11064D1*
X15750Y10750D1*
Y10063D1*
X17437Y12419D2*
X17710D1*
X18814Y11315D1*
X19939D1*
X20750Y10504D1*
Y10063D1*
X12750D2*
D17*
Y10818D1*
Y11131D1*
X12689Y11192D1*
X12750Y10818D2*
X13250D1*
X16561D2*
X16750Y10629D1*
Y10063D1*
X12750Y16063D2*
Y15754D1*
X13314Y15190D1*
X13437D1*
Y14565D1*
Y15190D2*
X14314D1*
X16564D2*
D14*
X16939Y15565D1*
X18564D1*
X18689Y15690D1*
Y16002D1*
X18750Y16063D1*
X10937Y14565D2*
Y15563D1*
X12064Y16690D1*
X13439D1*
X13750Y16379D1*
Y16063D1*
X10937Y14565D2*
Y11567D1*
X11439Y11065D1*
Y9936D1*
X11936Y9440D1*
X18564D1*
X18750Y9626D1*
Y10063D1*
X7939Y13065D2*
Y14065D1*
X9437Y15563D1*
X10937D1*
X9281Y13815D2*
D13*
X8689D1*
D14*
X8564Y13690D1*
Y12279D1*
D13*
X9281D1*
X17964Y7352D2*
D14*
X18001Y7390D1*
X22316Y16002D2*
Y15188D1*
X23064Y14440D1*
Y13752D1*
X22877Y13565D1*
X22439D1*
X22316Y13442D1*
Y13127D1*
Y11442D1*
X22189Y11315D1*
Y7315D2*
D15*
X17964D1*
D14*
Y7352D1*
X9281Y12279D2*
D3*
X8564D2*
Y11815D1*
X9375Y11004D1*
D16*
Y7937D1*
D17*
X6317D1*
X4812Y9442D1*
Y12690D1*
X4941D1*
X9375Y7937D2*
D16*
Y7364D1*
Y6754D1*
X11064Y5065D1*
X20129D1*
X20439Y5375D1*
Y7352D2*
D14*
X20038D1*
D15*
X17964D1*
X9375Y6937D2*
D14*
Y7364D1*
D21*
X10688Y10563D3*
X11938D3*
X26939Y8938D3*
X24064D3*
X25066Y10690D3*
X23064D3*
X11813Y8813D3*
X8688D3*
X11500Y7000D3*
Y5750D3*
D33*
X17314Y15127D3*
Y14190D3*
X17439Y11815D3*
X15564D3*
X16939Y11315D3*
X14564D3*
X13250Y10818D3*
X16561D3*
X14314Y15190D3*
X16564D3*
D21*
X22189Y11315D3*
Y7315D3*
X20439Y5375D3*
Y7352D3*
X23689Y7375D3*
Y5250D3*
X12438Y4375D3*
Y7000D3*
X4087Y17440D2*
D19*
X4375D1*
X5753D2*
X10496D1*
X15441D2*
X16906D1*
X22034D2*
X22168D1*
X23214D2*
X29086D1*
X30464D2*
X30726D1*
X4087Y17191D2*
X4172D1*
X5956D2*
X10250D1*
X15691D2*
X16660D1*
X23214D2*
X28883D1*
X6058Y16942D2*
X7187D1*
X15937D2*
X16410D1*
X23214D2*
X25133D1*
X27487D2*
X28781D1*
X6089Y16694D2*
X6695D1*
X16171D2*
X16253D1*
X23214D2*
X24879D1*
X27741D2*
X28750D1*
X6062Y16445D2*
X6367D1*
X24382D2*
X24711D1*
X28530D2*
X28781D1*
X4087Y16196D2*
X4168D1*
X5960D2*
X6262D1*
X24382D2*
X24691D1*
X28710D2*
X28879D1*
X4087Y15948D2*
X4367D1*
X5761D2*
X6258D1*
X24382D2*
X24691D1*
X26808D2*
X27105D1*
X28776D2*
X29078D1*
X30472D2*
X30726D1*
X4087Y15699D2*
X4898D1*
X5230D2*
X6359D1*
X11737D2*
X12121D1*
X24382D2*
X24691D1*
X26812D2*
X27160D1*
X28780D2*
X29609D1*
X29941D2*
X30726D1*
X4087Y15450D2*
X6422D1*
X11487D2*
X12340D1*
X24382D2*
X24691D1*
X26780D2*
X27195D1*
X28745D2*
X30726D1*
X4087Y15202D2*
X6422D1*
X7917D2*
X8414D1*
X11589D2*
X12039D1*
X20737D2*
X21172D1*
X24382D2*
X24758D1*
X26804D2*
X27320D1*
X28620D2*
X30726D1*
X4087Y14953D2*
X6422D1*
X7917D2*
X8164D1*
X11589D2*
X12039D1*
X20491D2*
X21187D1*
X24382D2*
X24984D1*
X27054D2*
X27641D1*
X28300D2*
X30726D1*
X4087Y14704D2*
X6422D1*
X9241D2*
X9539D1*
X11589D2*
X12039D1*
X20241D2*
X21332D1*
X24382D2*
X25234D1*
X27304D2*
X30726D1*
X4087Y14456D2*
X5117D1*
X8991D2*
X9539D1*
X11589D2*
X12039D1*
X20089D2*
X21578D1*
X24167D2*
X25484D1*
X27550D2*
X30726D1*
X4087Y14207D2*
X4879D1*
X20089D2*
X21828D1*
X24167D2*
X25730D1*
X27679D2*
X30726D1*
X4087Y13958D2*
X4793D1*
X20089D2*
X22078D1*
X24167D2*
X25980D1*
X27687D2*
X30726D1*
X4087Y13709D2*
X4793D1*
X20089D2*
X21930D1*
X24167D2*
X26191D1*
X27687D2*
X30726D1*
X4087Y13461D2*
X4793D1*
X5839D2*
X6379D1*
X20089D2*
X21793D1*
X24167D2*
X26191D1*
X27687D2*
X30726D1*
X4087Y13212D2*
X4418D1*
X18089D2*
X21793D1*
X24167D2*
X26191D1*
X27687D2*
X30726D1*
X4087Y12963D2*
X4379D1*
X18089D2*
X21793D1*
X24167D2*
X26191D1*
X27687D2*
X30726D1*
X4087Y12715D2*
X4297D1*
X6214D2*
X6346D1*
X18089D2*
X21793D1*
X24167D2*
X26191D1*
X27687D2*
X30726D1*
X4087Y12466D2*
X4297D1*
X6214D2*
X6422D1*
X18327D2*
X21840D1*
X24167D2*
X26191D1*
X27687D2*
X30726D1*
X4087Y12217D2*
X4297D1*
X6214D2*
X6422D1*
X7917D2*
X8090D1*
X18573D2*
X21840D1*
X24167D2*
X26152D1*
X27687D2*
X30726D1*
X4087Y11969D2*
X4297D1*
X6253D2*
X6422D1*
X7917D2*
X8090D1*
X18823D2*
X21840D1*
X24167D2*
X25902D1*
X27687D2*
X30726D1*
X4087Y11720D2*
X4297D1*
X6253D2*
X6422D1*
X7917D2*
X8098D1*
X11448D2*
X12000D1*
X20163D2*
X21637D1*
X24167D2*
X25406D1*
X27675D2*
X30726D1*
X4087Y11471D2*
X4297D1*
X6253D2*
X6422D1*
X7917D2*
X8246D1*
X11694D2*
X12000D1*
X20444D2*
X21516D1*
X24167D2*
X25156D1*
X27538D2*
X30726D1*
X4087Y11223D2*
X4297D1*
X6253D2*
X6422D1*
X7917D2*
X8492D1*
X11886D2*
X11996D1*
X20694D2*
X21504D1*
X24167D2*
X24641D1*
X27288D2*
X30726D1*
X4087Y10974D2*
X4297D1*
X6253D2*
X6422D1*
X8097D2*
X8742D1*
X11917D2*
X11997D1*
X20944D2*
X21594D1*
X24167D2*
X24437D1*
X27038D2*
X30726D1*
X4087Y10725D2*
X4297D1*
X6253D2*
X6422D1*
X8632D2*
X8828D1*
X11917D2*
X11997D1*
X21167D2*
X21855D1*
X24167D2*
X24375D1*
X28542D2*
X30726D1*
X4087Y10477D2*
X4297D1*
X6253D2*
X6389D1*
X8632D2*
X8828D1*
X11917D2*
X12018D1*
X21347D2*
X22406D1*
X24167D2*
X24410D1*
X28714D2*
X30726D1*
X4087Y10228D2*
X4297D1*
X8632D2*
X8828D1*
X11917D2*
X12018D1*
X21460D2*
X22558D1*
X24167D2*
X24562D1*
X28776D2*
X30726D1*
X4087Y9979D2*
X4297D1*
X6077D2*
X6254D1*
X8632D2*
X8828D1*
X21476D2*
X22566D1*
X24167D2*
X25191D1*
X28780D2*
X30726D1*
X4087Y9730D2*
X4297D1*
X6077D2*
X6340D1*
X8632D2*
X8828D1*
X21398D2*
X22414D1*
X24167D2*
X25230D1*
X28745D2*
X30726D1*
X4087Y9482D2*
X4297D1*
X6241D2*
X6594D1*
X8632D2*
X8828D1*
X24472D2*
X25359D1*
X28612D2*
X30726D1*
X4087Y9233D2*
X4344D1*
X6491D2*
X8144D1*
X24687D2*
X25508D1*
X28437D2*
X30726D1*
X4087Y8984D2*
X4551D1*
X13112D2*
X16105D1*
X24753D2*
X25508D1*
X28437D2*
X30726D1*
X4087Y8736D2*
X4801D1*
X13358D2*
X15855D1*
X24726D2*
X25508D1*
X28429D2*
X30726D1*
X4087Y8487D2*
X5047D1*
X13608D2*
X15609D1*
X24581D2*
X25508D1*
X28304D2*
X30726D1*
X4087Y8238D2*
X5297D1*
X13858D2*
X15359D1*
X23003D2*
X25508D1*
X28054D2*
X30726D1*
X4087Y7990D2*
X5547D1*
X17151D2*
X17683D1*
X18241D2*
X20219D1*
X20659D2*
X25508D1*
X27804D2*
X30726D1*
X4087Y7741D2*
X5793D1*
X11421D2*
X12285D1*
X16980D2*
X17375D1*
X22726D2*
X25488D1*
X26999D2*
X30726D1*
X4087Y7492D2*
X6086D1*
X11976D2*
X12531D1*
X17085D2*
X17266D1*
X22858D2*
X25242D1*
X26999D2*
X30726D1*
X4087Y7244D2*
X8723D1*
X12144D2*
X12781D1*
X22878D2*
X24992D1*
X26999D2*
X30726D1*
X4087Y6995D2*
X8723D1*
X12191D2*
X13031D1*
X26956D2*
X30726D1*
X4087Y6746D2*
X8723D1*
X26753D2*
X30726D1*
X4087Y6498D2*
X8723D1*
X26503D2*
X30726D1*
X4087Y6249D2*
X4680D1*
X5448D2*
X9117D1*
X26253D2*
X29391D1*
X30159D2*
X30726D1*
X4087Y6000D2*
X4308D1*
X5819D2*
X9367D1*
X26007D2*
X29019D1*
X30530D2*
X30726D1*
X5991Y5751D2*
X9617D1*
X16691D2*
X16812D1*
X25757D2*
X28848D1*
X6073Y5503D2*
X9863D1*
X21116D2*
X28766D1*
X6089Y5254D2*
X10113D1*
X21120D2*
X28750D1*
X6042Y5005D2*
X10363D1*
X21019D2*
X28797D1*
X4087Y4757D2*
X4207D1*
X5921D2*
X10609D1*
X20714D2*
X28918D1*
X30632D2*
X30726D1*
X4087Y4508D2*
X4445D1*
X5683D2*
X29156D1*
X30394D2*
X30726D1*
X4087Y4259D2*
X30726D1*
X9123Y6271D2*
X8748D1*
Y7447D1*
X6317Y7446D1*
X6193Y7462D1*
X6077Y7508D1*
X5969Y7590D1*
X4465Y9095D1*
X4389Y9193D1*
X4340Y9308D1*
X4321Y9442D1*
Y12690D1*
X4337Y12814D1*
X4389Y12940D1*
X4441Y13012D1*
X4442Y13268D1*
X4813D1*
X4816Y14173D1*
X4885Y14179D1*
X4967Y14287D1*
X5092Y14412D1*
X5184Y14485D1*
X5292Y14533D1*
X5396Y14554D1*
X6451Y14556D1*
X6448Y15065D1*
Y15616D1*
X6360Y15736D1*
X6308Y15850D1*
X6279Y15971D1*
X6274Y16096D1*
X6291Y16220D1*
X6331Y16338D1*
X6393Y16446D1*
X6474Y16542D1*
X6571Y16620D1*
X6681Y16679D1*
X6800Y16717D1*
X6924Y16731D1*
X7021Y16724D1*
X7106Y16836D1*
X7292Y17022D1*
X7391Y17097D1*
X7506Y17144D1*
X7625Y17160D1*
X10246D1*
X10770Y17687D1*
X5131Y17688D1*
X5343Y17651D1*
X5460Y17609D1*
X5572Y17553D1*
X5675Y17483D1*
X5769Y17401D1*
X5852Y17307D1*
X5923Y17204D1*
X5981Y17093D1*
X6024Y16976D1*
X6052Y16854D1*
X6065Y16690D1*
X6058Y16565D1*
X6034Y16442D1*
X5996Y16324D1*
X5943Y16210D1*
X5877Y16105D1*
X5797Y16008D1*
X5707Y15922D1*
X5606Y15848D1*
X5497Y15787D1*
X5381Y15740D1*
X5261Y15708D1*
X5137Y15691D1*
X5012Y15690D1*
X4888Y15704D1*
X4767Y15734D1*
X4650Y15779D1*
X4540Y15837D1*
X4437Y15909D1*
X4345Y15993D1*
X4264Y16088D1*
X4195Y16193D1*
X4140Y16305D1*
X4099Y16423D1*
X4074Y16545D1*
X4063Y16670D1*
X4069Y16794D1*
X4089Y16918D1*
X4125Y17037D1*
X4176Y17152D1*
X4240Y17259D1*
X4318Y17357D1*
X4407Y17445D1*
X4506Y17521D1*
X4613Y17584D1*
X4728Y17633D1*
X4848Y17667D1*
X5038Y17689D1*
X4062Y17688D1*
Y4062D1*
X30752D1*
Y5097D1*
X30707Y4949D1*
X30654Y4835D1*
X30587Y4730D1*
X30508Y4633D1*
X30418Y4547D1*
X30317Y4473D1*
X30208Y4412D1*
X30092Y4365D1*
X29971Y4333D1*
X29848Y4316D1*
X29723Y4315D1*
X29599Y4329D1*
X29477Y4359D1*
X29361Y4404D1*
X29250Y4462D1*
X29148Y4534D1*
X29056Y4618D1*
X28975Y4713D1*
X28906Y4818D1*
X28851Y4930D1*
X28810Y5048D1*
X28785Y5170D1*
X28774Y5295D1*
X28780Y5419D1*
X28800Y5543D1*
X28836Y5662D1*
X28887Y5777D1*
X28951Y5884D1*
X29028Y5982D1*
X29117Y6070D1*
X29216Y6146D1*
X29324Y6209D1*
X29439Y6258D1*
X29559Y6292D1*
X29683Y6312D1*
X29807Y6315D1*
X29932Y6304D1*
X30054Y6276D1*
X30171Y6234D1*
X30283Y6178D1*
X30386Y6108D1*
X30480Y6026D1*
X30563Y5932D1*
X30634Y5829D1*
X30691Y5718D1*
X30753Y5521D1*
X30752Y16472D1*
X30707Y16324D1*
X30654Y16211D1*
X30587Y16105D1*
X30508Y16008D1*
X30418Y15922D1*
X30317Y15848D1*
X30208Y15787D1*
X30092Y15740D1*
X29971Y15708D1*
X29848Y15692D1*
X29723Y15690D1*
X29599Y15705D1*
X29477Y15734D1*
X29361Y15779D1*
X29250Y15837D1*
X29148Y15909D1*
X29056Y15994D1*
X28975Y16089D1*
X28906Y16193D1*
X28851Y16305D1*
X28810Y16423D1*
X28785Y16545D1*
X28774Y16670D1*
X28780Y16795D1*
X28800Y16918D1*
X28836Y17037D1*
X28887Y17152D1*
X28951Y17259D1*
X29028Y17357D1*
X29117Y17445D1*
X29216Y17521D1*
X29324Y17584D1*
X29439Y17633D1*
X29559Y17668D1*
X29741Y17689D1*
X15170Y17688D1*
X16084Y16772D1*
X16168Y16656D1*
X16268Y16655D1*
X16307Y16773D1*
X16403Y16910D1*
X17029Y17536D1*
X17127Y17612D1*
X17242Y17661D1*
X17376Y17680D1*
X21566D1*
X21689Y17664D1*
X21805Y17617D1*
X21913Y17536D1*
X22048Y17400D1*
X22194Y17399D1*
X22191Y17486D1*
X23190D1*
Y16630D1*
X24356Y16629D1*
X24352Y15375D1*
X24356Y15131D1*
Y14627D1*
X24141D1*
Y9602D1*
X24294Y9563D1*
X24406Y9510D1*
X24507Y9436D1*
X24592Y9344D1*
X24659Y9239D1*
X24704Y9123D1*
X24731Y8938D1*
X24719Y8813D1*
X24684Y8693D1*
X24628Y8582D1*
X24552Y8483D1*
X24458Y8400D1*
X24351Y8336D1*
X24234Y8293D1*
X24111Y8273D1*
X23986Y8276D1*
X23864Y8302D1*
X23749Y8350D1*
X23645Y8419D1*
X23575Y8487D1*
X23373Y8486D1*
X23256Y8368D1*
X23157Y8293D1*
X23037Y8248D1*
X22937Y8236D1*
X17371D1*
X16923Y7786D1*
X17006Y7653D1*
X17050Y7536D1*
X17075Y7352D1*
X17068Y7242D1*
X17193Y7251D1*
X17290Y7240D1*
X17278Y7322D1*
X17284Y7446D1*
X17313Y7568D1*
X17362Y7682D1*
X17432Y7786D1*
X17519Y7875D1*
X17621Y7947D1*
X17735Y7999D1*
X17856Y8030D1*
X17980Y8038D1*
X18104Y8024D1*
X18224Y7987D1*
X18344Y7923D1*
X20038D1*
X20089Y7918D1*
X20180Y7966D1*
X20299Y8004D1*
X20423Y8019D1*
X20547Y8010D1*
X20668Y7978D1*
X20781Y7924D1*
X20839Y7886D1*
X21843D1*
X21931Y7929D1*
X22050Y7967D1*
X22174Y7981D1*
X22298Y7972D1*
X22419Y7941D1*
X22531Y7887D1*
X22632Y7813D1*
X22717Y7722D1*
X22784Y7616D1*
X22830Y7500D1*
X22856Y7315D1*
X22844Y7191D1*
X22794Y7039D1*
X23464Y7036D1*
X24812D1*
X25530Y7757D1*
X25531Y9340D1*
X25429Y9431D1*
X25351Y9528D1*
X25290Y9637D1*
X25246Y9754D1*
X25222Y9877D1*
X25217Y10041D1*
X25113Y10025D1*
X24988Y10028D1*
X24866Y10054D1*
X24751Y10102D1*
X24647Y10172D1*
X24558Y10259D1*
X24487Y10361D1*
X24435Y10475D1*
X24406Y10596D1*
X24401Y10721D1*
X24418Y10845D1*
X24458Y10963D1*
X24520Y11071D1*
X24601Y11167D1*
X24698Y11245D1*
X24808Y11304D1*
X24927Y11342D1*
X25062Y11355D1*
X25483Y11773D1*
X25582Y11849D1*
X25698Y11896D1*
X25816Y11911D1*
X25867D1*
X26220Y12262D1*
X26218Y13748D1*
X25472Y14491D1*
X24856Y15107D1*
X24780Y15206D1*
X24733Y15321D1*
X24718Y15440D1*
Y16315D1*
X24735Y16438D1*
X24783Y16553D1*
X24856Y16648D1*
X25106Y16898D1*
X25205Y16974D1*
X25321Y17021D1*
X25439Y17036D1*
X27179D1*
X27303Y17020D1*
X27417Y16971D1*
X27512Y16898D1*
X27780Y16630D1*
X27898Y16653D1*
X28023Y16655D1*
X28146Y16637D1*
X28266Y16599D1*
X28377Y16543D1*
X28478Y16470D1*
X28567Y16382D1*
X28640Y16281D1*
X28696Y16169D1*
X28734Y16050D1*
X28755Y15872D1*
X28751Y15675D1*
X28745Y15551D1*
X28715Y15429D1*
X28667Y15314D1*
X28601Y15208D1*
X28519Y15114D1*
X28423Y15034D1*
X28316Y14971D1*
X28199Y14925D1*
X28077Y14898D1*
X27953Y14891D1*
X27829Y14903D1*
X27708Y14936D1*
X27594Y14987D1*
X27490Y15055D1*
X27397Y15139D1*
X27320Y15237D1*
X27258Y15346D1*
X27215Y15463D1*
X27191Y15585D1*
X27186Y15800D1*
X27190Y15872D1*
X27018Y16059D1*
X26983Y16095D1*
X26753Y16094D1*
X26785Y15927D1*
X26786Y15675D1*
X26777Y15551D1*
X26747Y15429D1*
X26689Y15293D1*
X27523Y14459D1*
X27598Y14360D1*
X27645Y14244D1*
X27661Y14126D1*
Y11815D1*
X27644Y11691D1*
X27596Y11576D1*
X27523Y11482D1*
X26989Y10949D1*
X27162Y10928D1*
X27281Y10890D1*
X27393Y10834D1*
X27478Y10773D1*
X27547Y10824D1*
X27657Y10883D1*
X27775Y10923D1*
X27898Y10945D1*
X28023Y10946D1*
X28146Y10928D1*
X28266Y10890D1*
X28377Y10834D1*
X28478Y10761D1*
X28567Y10673D1*
X28640Y10572D1*
X28696Y10460D1*
X28734Y10342D1*
X28755Y10163D1*
X28751Y9966D1*
X28745Y9842D1*
X28715Y9721D1*
X28667Y9606D1*
X28601Y9500D1*
X28519Y9405D1*
X28413Y9320D1*
X28411Y8815D1*
X28394Y8691D1*
X28346Y8576D1*
X28273Y8482D1*
X27770Y7979D1*
X27671Y7904D1*
X27556Y7856D1*
X27437Y7841D1*
X26972D1*
X26973Y7187D1*
X26957Y7064D1*
X26908Y6949D1*
X26835Y6854D1*
X25710Y5729D1*
X25611Y5653D1*
X25496Y5606D1*
X25377Y5591D1*
X21068D1*
X21102Y5437D1*
X21094Y5250D1*
X21059Y5130D1*
X21002Y5019D1*
X20926Y4920D1*
X20833Y4837D1*
X20726Y4773D1*
X20609Y4730D1*
X20513Y4714D1*
X20399Y4619D1*
X20286Y4568D1*
X20129Y4544D1*
X11064D1*
X10941Y4559D1*
X10824Y4602D1*
X10696Y4696D1*
X9119Y6273D1*
X8606Y15571D2*
Y15398D1*
X7891D1*
Y14655D1*
X8811Y15574D1*
X8607D1*
X6451Y12615D2*
X6360Y12736D1*
X6308Y12850D1*
X6279Y12971D1*
X6274Y13096D1*
X6291Y13220D1*
X6331Y13338D1*
X6393Y13446D1*
X6446Y13509D1*
X6448Y13577D1*
X5939Y13574D1*
X5818D1*
X5815Y13268D1*
X6189D1*
Y12112D1*
X6177D1*
X6181Y12061D1*
X6229Y12065D1*
X6225Y10811D1*
X6229Y10567D1*
Y10063D1*
X6053D1*
Y9647D1*
X6708Y8991D1*
X8047D1*
X8079Y9085D1*
X8141Y9194D1*
X8222Y9289D1*
X8319Y9368D1*
X8377Y9399D1*
X7273Y9398D1*
Y9488D1*
X7109Y9420D1*
X6986Y9400D1*
X6861Y9403D1*
X6739Y9429D1*
X6624Y9477D1*
X6520Y9547D1*
X6431Y9634D1*
X6360Y9736D1*
X6308Y9850D1*
X6279Y9971D1*
X6274Y10096D1*
X6291Y10220D1*
X6331Y10338D1*
X6393Y10446D1*
X6446Y10509D1*
X6448Y12190D1*
Y12616D1*
X8110Y12398D2*
X7891D1*
Y11155D1*
X8285Y10759D1*
X8398Y10731D1*
X8606D1*
Y9474D1*
X8672Y9479D1*
X8796Y9470D1*
X8853Y9455D1*
X8854Y10887D1*
X8245Y11496D1*
X8170Y11595D1*
X8125Y11715D1*
X8113Y11815D1*
Y12401D1*
X12332Y15498D2*
X12279Y15538D1*
X12194Y15629D1*
X12126Y15734D1*
X12078Y15849D1*
X12051Y15971D1*
X12048Y16037D1*
X11386Y15374D1*
X11389Y15231D1*
X11565D1*
Y14267D1*
X12065Y14266D1*
X12062Y14773D1*
Y15231D1*
X12582D1*
X12401Y15410D1*
X12342Y15481D1*
X21200Y15520D2*
X21094Y15447D1*
X20980Y15396D1*
X20885Y15372D1*
X20067Y14554D1*
X20065Y13273D1*
X18810Y13277D1*
X18566Y13273D1*
X18064D1*
X18065Y12704D1*
X18999Y11769D1*
X19939Y11766D1*
X20063Y11749D1*
X20180Y11696D1*
X20258Y11634D1*
X21069Y10823D1*
X21146Y10720D1*
X21172Y10664D1*
X21326Y10471D1*
X21389Y10363D1*
X21432Y10246D1*
X21456Y10063D1*
X21445Y9939D1*
X21412Y9818D1*
X21359Y9706D1*
X21286Y9604D1*
X21217Y9536D1*
X22248D1*
X22595Y9887D1*
X22593Y10217D1*
X22485Y10361D1*
X22433Y10475D1*
X22404Y10596D1*
X22400Y10686D1*
X22359Y10670D1*
X22236Y10650D1*
X22111Y10653D1*
X21989Y10679D1*
X21874Y10727D1*
X21770Y10797D1*
X21681Y10884D1*
X21610Y10986D1*
X21558Y11100D1*
X21529Y11221D1*
X21524Y11346D1*
X21541Y11470D1*
X21581Y11588D1*
X21643Y11696D1*
X21724Y11792D1*
X21821Y11870D1*
X21865Y11894D1*
Y12547D1*
X21817Y12549D1*
Y13705D1*
X21954D1*
X21997Y13761D1*
X22123Y13886D1*
X22078Y13982D1*
X21342Y14718D1*
X21266Y14816D1*
X21217Y14931D1*
X21198Y15065D1*
Y15514D1*
X12045Y9971D2*
Y10564D1*
X12023Y10565D1*
X12027Y11819D1*
X12023Y11813D1*
Y11824D1*
X11499Y11828D1*
X11388Y11829D1*
X11389Y11756D1*
X11758Y11384D1*
X11834Y11284D1*
X11879Y11164D1*
X11891Y11065D1*
Y10123D1*
X12043Y9971D1*
X14811Y8037D2*
X14955Y8024D1*
X15074Y7987D1*
X15154Y7946D1*
X15195Y8028D1*
X15269Y8123D1*
X16133Y8988D1*
X13084Y8989D1*
X13952Y8119D1*
X14542Y8116D1*
X14665Y8100D1*
X14752Y8069D1*
X14756Y8067D1*
X6058Y5190D2*
X6034Y5067D1*
X5996Y4949D1*
X5943Y4835D1*
X5877Y4730D1*
X5797Y4633D1*
X5707Y4547D1*
X5606Y4473D1*
X5497Y4412D1*
X5381Y4365D1*
X5261Y4333D1*
X5137Y4316D1*
X5012Y4315D1*
X4888Y4329D1*
X4767Y4359D1*
X4650Y4404D1*
X4540Y4462D1*
X4437Y4534D1*
X4345Y4618D1*
X4264Y4713D1*
X4195Y4818D1*
X4140Y4930D1*
X4099Y5048D1*
X4074Y5170D1*
X4063Y5295D1*
X4069Y5419D1*
X4089Y5543D1*
X4125Y5662D1*
X4176Y5777D1*
X4240Y5884D1*
X4318Y5982D1*
X4407Y6070D1*
X4506Y6146D1*
X4613Y6209D1*
X4728Y6258D1*
X4848Y6292D1*
X4972Y6312D1*
X5097Y6315D1*
X5221Y6304D1*
X5343Y6276D1*
X5460Y6234D1*
X5572Y6178D1*
X5675Y6108D1*
X5769Y6026D1*
X5852Y5932D1*
X5923Y5829D1*
X5981Y5718D1*
X6024Y5601D1*
X6052Y5479D1*
X6065Y5315D1*
X6058Y5190D1*
X29827Y17689D2*
X29932Y17679D1*
X30054Y17652D1*
X30171Y17610D1*
X30283Y17553D1*
X30386Y17483D1*
X30480Y17401D1*
X30563Y17308D1*
X30634Y17205D1*
X30691Y17094D1*
X30753Y16896D1*
X30752Y17688D1*
X29850D1*
X17004Y5584D2*
X16843Y5744D1*
X16766Y5847D1*
X16504Y5588D1*
X17006Y5586D1*
X12145Y6826D2*
X13223D1*
X12249Y7801D1*
X11563Y7799D1*
X11439Y7816D1*
X11322Y7869D1*
X11304Y7834D1*
X11472Y7666D1*
X11609Y7657D1*
X11730Y7626D1*
X11842Y7572D1*
X11943Y7498D1*
X12028Y7407D1*
X12095Y7301D1*
X12141Y7185D1*
X12167Y7000D1*
X12155Y6876D1*
X12141Y6827D1*
X11155Y8019D2*
X10869Y8306D1*
X10794Y8405D1*
X10748Y8525D1*
X10737Y8625D1*
Y10504D1*
X10639Y10598D1*
X10641Y8498D1*
X11304Y7834D1*
X8779Y14265D2*
X9559D1*
X9562Y14773D1*
Y15051D1*
X8776Y14263D1*
X9305Y14265D1*
D20*
X8627Y6937D3*
X9375D3*
D21*
X6939Y16065D3*
D22*
X7939D3*
D21*
X6939Y13065D3*
D22*
X7939D3*
D21*
X6939Y10065D3*
D22*
X7939D3*
D23*
X12750Y16063D3*
X13750Y10063D3*
X14750D3*
X16750D3*
X17750D3*
X18750D3*
X19750D3*
X20750Y16063D3*
Y10063D3*
X15750D3*
X13750Y16063D3*
X15750D3*
X16750D3*
X17750D3*
X18750D3*
X19750D3*
X14750D3*
D24*
X12750Y10063D3*
D25*
X11564Y13815D3*
Y13559D3*
Y13303D3*
Y13047D3*
Y12791D3*
Y12535D3*
Y12279D3*
Y12024D3*
X9281D3*
Y12279D3*
Y12535D3*
Y12791D3*
Y13047D3*
Y13303D3*
Y13559D3*
Y13815D3*
D22*
X14814Y6565D3*
D26*
Y7352D3*
X15602Y6565D3*
Y7352D3*
X16389D3*
Y6565D3*
X17177D3*
Y7352D3*
X17964Y6565D3*
Y7352D3*
D28*
X23064Y16002D3*
X22316D3*
X22690Y16908D3*
X23064Y13127D3*
X22316D3*
X22690Y14033D3*
X5689Y12690D3*
X4941D3*
X5315Y13595D3*
D20*
X10189Y14565D3*
X10937D3*
X12689D3*
X13437D3*
X14564Y14440D3*
X15312D3*
X18689Y13940D3*
X19437D3*
X16689Y13190D3*
X17437D3*
X15064Y12565D3*
X15812D3*
D29*
X13814Y12190D3*
Y11442D3*
X12689Y11940D3*
Y11192D3*
X23689Y16002D3*
Y15254D3*
X23064Y12190D3*
Y11442D3*
X5562Y11438D3*
Y10690D3*
D30*
X26002Y10065D3*
X26986D3*
X27970D3*
X26002Y15774D3*
X27970D3*
D31*
X25214Y13018D3*
X28758D3*
M02*
