M48
INCH
T01C0.0236
T02C0.0276
T03C0.0354
T04C0.0472
T05C0.1024
T06C0.126
%
T01
X+017314Y+015127
X+016564Y+015190
X+017314Y+014190
X+017439Y+011815
X+016939Y+011315
X+016561Y+010818
X+015564Y+011815
X+014564Y+011315
X+013250Y+010818
X+014314Y+015190
T02
X+006939Y+016065
X+007939Y+016065
X+007939Y+013065
X+006939Y+013065
X+006939Y+010065
X+007939Y+010065
X+008688Y+008813
X+010688Y+010563
X+011938Y+010563
X+011813Y+008813
X+011500Y+007000
X+012438Y+007000
X+011500Y+005750
X+012438Y+004375
X+020439Y+005375
X+020439Y+007352
X+022189Y+007315
X+023689Y+007375
X+024064Y+008938
X+023064Y+010690
X+022189Y+011315
X+025066Y+010690
X+026939Y+008938
X+023689Y+005250
T03
X+012750Y+016063
X+013750Y+016063
X+014750Y+016063
X+015750Y+016063
X+016750Y+016063
X+017750Y+016063
X+018750Y+016063
X+019750Y+016063
X+020750Y+016063
X+020750Y+010063
X+019750Y+010063
X+018750Y+010063
X+017750Y+010063
X+016750Y+010063
X+015750Y+010063
X+014750Y+010063
X+013750Y+010063
X+012750Y+010063
X+014814Y+007352
X+014814Y+006565
X+015602Y+006565
X+015602Y+007352
X+016389Y+007352
X+016389Y+006565
X+017177Y+006565
X+017177Y+007352
X+017964Y+007352
X+017964Y+006565
T04
X+026002Y+010065
X+026986Y+010065
X+027970Y+010065
X+027970Y+015774
X+026002Y+015774
T05
X+025214Y+013018
X+028758Y+013018
T06
X+005064Y+016690
X+005064Y+005315
X+029775Y+005315
X+029775Y+016690
T00
M30
